<?xml version="1.0" standalone="no"?>
<!DOCTYPE svg PUBLIC "-//W3C//DTD SVG 1.1//EN" "http://www.w3.org/Graphics/SVG/1.1/DTD/svg11.dtd" >
<svg xmlns="http://www.w3.org/2000/svg">
<metadata></metadata>
<defs>
<font id="vf_sansregular" horiz-adv-x="1130" >
<font-face units-per-em="2048" ascent="1536" descent="-512" />
<missing-glyph horiz-adv-x="477" />
<glyph horiz-adv-x="0" />
<glyph horiz-adv-x="682" />
<glyph unicode=" "  horiz-adv-x="477" />
<glyph unicode="&#x09;" horiz-adv-x="477" />
<glyph unicode="&#xa0;" horiz-adv-x="477" />
<glyph unicode="!" horiz-adv-x="432" d="M133 63q0 32 24 56t58 24q32 0 57 -24t25 -56q0 -33 -24.5 -56t-57.5 -23q-34 0 -58 23t-24 56zM162 1446h106l-4 -989h-96z" />
<glyph unicode="&#x22;" horiz-adv-x="675" d="M123 1446h110l-22 -561h-68zM442 1446h111l-21 -561h-67z" />
<glyph unicode="#" d="M47 315l6 84h228l57 430h-232l7 86h233l41 299h84l-41 -299h334l41 299h82l-39 -299h237l-6 -86h-241l-56 -430h242l-6 -84h-248l-41 -313h-82l41 313h-336l-41 -313h-84l43 313h-223zM365 399h333l58 430h-336z" />
<glyph unicode="$" d="M162 289l63 71q140 -181 348 -192v565q-41 17 -60.5 25.5t-56.5 26t-56 30.5t-47 34t-42.5 42t-30 48.5t-22 60.5t-6.5 71q0 56 17.5 107.5t53.5 97.5t100.5 77t149.5 38v127h93v-125q187 -9 317 -123l-59 -82q-111 99 -258 110v-487q48 -19 81 -34t75 -38.5t69 -50.5 t52.5 -62.5t37.5 -82.5t12 -103q0 -87 -27.5 -155t-75 -109.5t-103.5 -65t-121 -30.5v-135h-93v131q-253 10 -411 213zM365 1073q0 -84 53.5 -134t154.5 -91v448q-99 -11 -153.5 -67t-54.5 -156zM666 172q97 17 157 78.5t60 173.5q0 103 -56.5 164.5t-160.5 107.5v-524z" />
<glyph unicode="%" horiz-adv-x="1708" d="M61 1053q0 222 75 338t222 116q146 0 222.5 -115.5t76.5 -338.5q0 -222 -76.5 -339.5t-222.5 -117.5q-147 0 -222 117t-75 340zM152 1053q0 -379 208 -379q207 0 207 379q0 377 -207 377q-208 0 -208 -377zM274 0l1047 1452h76l-1047 -1452h-76zM1049 438q0 223 75 339 t222 116q146 0 222.5 -116t76.5 -339q0 -222 -76.5 -339t-222.5 -117q-147 0 -222 116.5t-75 339.5zM1139 438q0 -379 209 -379q206 0 206 379q0 377 -206 377q-209 0 -209 -377z" />
<glyph unicode="&#x26;" horiz-adv-x="1173" d="M82 336q0 73 17.5 129.5t61.5 109t102 98.5t155 109q-87 122 -128.5 216t-41.5 178q0 129 81.5 211.5t219.5 82.5q132 0 203 -77t71 -211q0 -115 -65 -214t-203 -204l307 -416q64 87 142 268l96 -26q-33 -79 -82 -169.5t-96 -152.5l211 -268h-125l-150 193 q-155 -213 -393 -213q-181 0 -282 103.5t-101 252.5zM184 336q0 -110 76 -189t209 -79q104 0 184 50.5t148 149.5l-328 443q-74 -47 -120.5 -82.5t-88.5 -81t-61 -97t-19 -114.5zM348 1178q0 -137 156 -351q227 167 227 353q0 100 -49.5 156.5t-134.5 56.5q-93 0 -146 -61.5 t-53 -153.5z" />
<glyph unicode="'" horiz-adv-x="356" d="M123 1446h110l-22 -561h-68z" />
<glyph unicode="(" horiz-adv-x="528" d="M113 600q0 473 270 854l80 -35q-142 -218 -195 -416t-53 -403t53 -402t195 -415l-80 -35q-270 381 -270 852z" />
<glyph unicode=")" horiz-adv-x="528" d="M66 -217q141 218 194 415.5t53 401.5t-53 402.5t-194 416.5l79 35q271 -387 271 -854q0 -465 -271 -852z" />
<glyph unicode="*" horiz-adv-x="907" d="M59 1128l27 82l342 -129l-18 365h88l-21 -365l344 129l27 -82l-352 -96l229 -282l-70 -52l-202 306l-199 -308l-70 52l228 284z" />
<glyph unicode="+" d="M96 518v84h422v504h92v-504h424v-84h-424v-498h-92v498h-422z" />
<glyph unicode="," horiz-adv-x="317" d="M39 -233l70 440h114l-112 -440h-72z" />
<glyph unicode="-" horiz-adv-x="677" d="M92 395v92h494v-92h-494z" />
<glyph unicode="." horiz-adv-x="317" d="M78 63q0 32 24 56t56 24q34 0 58 -24t24 -56q0 -33 -24 -56t-58 -23q-33 0 -56.5 23t-23.5 56z" />
<glyph unicode="/" horiz-adv-x="606" d="M27 -252l489 1698h90l-487 -1698h-92z" />
<glyph unicode="0" d="M86 723q0 369 122 559.5t355 190.5t357 -191t124 -559q0 -369 -124 -561.5t-357 -192.5q-232 0 -354.5 192.5t-122.5 561.5zM201 723q0 -657 364 -657q185 0 275 169.5t90 487.5q0 653 -365 653q-364 0 -364 -653z" />
<glyph unicode="1" d="M113 0v94h438v1229l-408 -125v102l504 158h12v-1364h404v-94h-950z" />
<glyph unicode="2" d="M111 0v10l555 662q6 7 35 41.5t38 45.5t33.5 44t33.5 50.5t26 50.5t23.5 59.5t12.5 61.5t6 71q0 127 -84.5 202.5t-216.5 75.5q-229 0 -344 -250l-100 35q138 314 449 314q177 0 294 -102t117 -269q0 -63 -15 -124.5t-32.5 -102t-54 -93t-54.5 -74t-59 -69.5l-461 -541 h707v-98h-909z" />
<glyph unicode="3" d="M109 176l81 66q139 -176 363 -176q66 0 125 19t107.5 56.5t77 100t28.5 141.5q0 155 -107.5 233t-330.5 78h-91v90h97q48 0 99 11.5t101.5 36.5t90 60.5t64 89t24.5 116.5q0 72 -24.5 126.5t-67 86.5t-94.5 47.5t-113 15.5q-102 0 -178 -40.5t-138 -127.5l-76 66 q83 104 178.5 152.5t223.5 48.5q61 0 118.5 -12.5t109.5 -40t90.5 -68t61.5 -101t23 -133.5q0 -142 -95.5 -242.5t-248.5 -130.5q87 -5 156.5 -28t124.5 -65t85 -111t30 -160q0 -102 -36.5 -182t-99.5 -129t-142.5 -74t-168.5 -25q-290 0 -448 205z" />
<glyph unicode="4" d="M86 383v6l629 1067h123l-580 -981h512v354h109v-350h219v-96h-219v-383h-109v383h-684z" />
<glyph unicode="5" d="M125 133l78 68q129 -133 319 -133q75 0 140 23t116 68.5t80 120t29 169.5q0 94 -28.5 166.5t-79 115.5t-113.5 64.5t-136 21.5q-63 0 -123.5 -17.5t-114 -59.5t-77.5 -101h-61l79 807h721v-98h-620l-66 -541q107 104 285 104q71 0 134 -15t120.5 -49.5t99 -86t66 -130.5 t24.5 -177q0 -121 -38 -214.5t-104.5 -150.5t-150 -86t-180.5 -29q-122 0 -226.5 42t-172.5 118z" />
<glyph unicode="6" d="M88 444q0 172 135 410l338 592h125l-367 -629q88 109 277 109q201 0 326 -131.5t125 -343.5q0 -127 -59 -233.5t-172 -172t-257 -65.5q-71 0 -139.5 19t-128.5 58.5t-105 94t-71.5 130t-26.5 162.5zM201 449q0 -169 103.5 -272t258.5 -103q158 0 264.5 102.5t106.5 274.5 q0 190 -102 285t-269 95q-159 0 -260.5 -107t-101.5 -275z" />
<glyph unicode="7" d="M96 1346v100h942v-35l-561 -1411h-125l537 1346h-793z" />
<glyph unicode="8" d="M111 381q0 82 24.5 148t68.5 109t97 70t117 40q-112 34 -188 120.5t-76 231.5q0 91 35 163.5t94 116.5t132 67t154 23q80 0 152.5 -23t131.5 -67t93.5 -116.5t34.5 -163.5q0 -136 -76.5 -226.5t-183.5 -125.5q61 -15 112 -42t94.5 -69.5t68 -108t24.5 -147.5 q0 -128 -62.5 -221.5t-165 -139t-229.5 -45.5q-89 0 -169 25.5t-144 74t-101.5 128t-37.5 178.5zM223 385q0 -103 50 -176.5t126.5 -107t167.5 -33.5q141 0 241.5 82.5t100.5 234.5q0 104 -50.5 177.5t-126 106.5t-165.5 33q-68 0 -129 -19.5t-109.5 -57t-77 -99.5 t-28.5 -141zM262 1092q0 -139 89 -219t216 -80q125 0 214 80t89 217q0 138 -88.5 213t-214.5 75q-129 0 -217 -74.5t-88 -211.5z" />
<glyph unicode="9" d="M84 991q0 94 34.5 180.5t96 151.5t154 104t200.5 39q88 0 171.5 -31t150.5 -87.5t108 -146t41 -197.5q0 -178 -133 -410l-338 -594h-125l377 641q-47 -53 -124 -86t-162 -33q-198 0 -324.5 128.5t-126.5 340.5zM197 995q0 -183 99.5 -282t260.5 -99t267 107.5t106 275.5 q0 163 -104.5 269t-258.5 106t-262 -107t-108 -270z" />
<glyph unicode=":" horiz-adv-x="317" d="M78 63q0 32 24 56t56 24q34 0 58 -24t24 -56q0 -33 -24 -56t-58 -23q-33 0 -56.5 23t-23.5 56zM78 690q0 32 24 57t56 25q33 0 57.5 -24.5t24.5 -57.5q0 -34 -24 -58t-58 -24q-32 0 -56 24t-24 58z" />
<glyph unicode=";" horiz-adv-x="317" d="M39 -233l70 440h114l-112 -440h-72zM78 690q0 32 24 57t56 25q33 0 57.5 -24.5t24.5 -57.5q0 -34 -24 -58t-58 -24q-32 0 -56 24t-24 58z" />
<glyph unicode="&#x3c;" d="M92 516v59l948 480v-105l-800 -401v-4l800 -398v-106z" />
<glyph unicode="=" d="M96 311v82h938v-82h-938zM96 707v81h938v-81h-938z" />
<glyph unicode="&#x3e;" d="M92 41v106l799 398v4l-799 401v105l946 -477v-62z" />
<glyph unicode="?" horiz-adv-x="757" d="M39 1245q46 98 132 161.5t210 63.5q147 0 227 -82.5t80 -209.5q0 -103 -65 -236l-222 -481h-112l227 489q64 130 64 215q0 94 -53.5 152.5t-151.5 58.5q-86 0 -142 -42.5t-108 -125.5zM233 63q0 32 24 56t58 24q33 0 57.5 -24.5t24.5 -57.5q0 -32 -24.5 -55.5 t-57.5 -23.5q-34 0 -58 23.5t-24 57.5z" />
<glyph unicode="@" horiz-adv-x="1603" d="M94 430q0 142 51.5 275t144 237.5t235.5 168t313 63.5q160 0 289 -52t211.5 -142t126.5 -207.5t44 -250.5q0 -220 -96.5 -350.5t-245.5 -130.5q-68 0 -117 38t-61 99q-99 -137 -250 -137q-127 0 -201.5 94.5t-74.5 243.5q0 190 98.5 312t255.5 122q88 0 144.5 -54.5 t76.5 -144.5l39 189h86l-90 -443q-20 -92 -20 -139q0 -54 33.5 -86.5t91.5 -32.5q118 0 190 118t72 296q0 120 -38.5 226t-112.5 189t-192.5 131t-267.5 48q-147 0 -273.5 -57t-211.5 -151t-133.5 -217t-48.5 -255q0 -140 43.5 -261.5t124 -213.5t205 -144.5t278.5 -52.5 q254 0 459 121l33 -53q-111 -67 -225.5 -100t-268.5 -33q-207 0 -370.5 92t-255 260t-91.5 385zM549 391q0 -137 57.5 -205.5t153.5 -68.5q114 0 179 107t65 265q0 105 -46 175.5t-141 70.5q-108 0 -188 -97.5t-80 -246.5z" />
<glyph unicode="A" horiz-adv-x="1288" d="M33 0l608 1483h2l612 -1483h-116l-142 346h-712l-135 -346h-117zM319 440h642l-320 797z" />
<glyph unicode="B" horiz-adv-x="985" d="M166 0v1446h268q185 0 294.5 -92.5t109.5 -253.5q0 -121 -60 -214.5t-178 -133.5v-4q132 -23 211.5 -120.5t79.5 -232.5q0 -186 -107 -290.5t-313 -104.5h-305zM274 90h181q72 0 128 14.5t101.5 48.5t69.5 95.5t24 148.5q0 78 -28.5 136.5t-77.5 93t-109.5 51 t-130.5 16.5h-158v-604zM274 784h154q125 0 214 81t89 210q0 279 -315 279h-142v-570z" />
<glyph unicode="C" horiz-adv-x="1486" d="M109 723q0 155 57.5 294.5t155.5 239t232.5 158t283.5 58.5q355 0 579 -285l-88 -66q-98 124 -216.5 188t-272.5 64q-169 0 -310.5 -87t-223 -237t-81.5 -327q0 -178 79.5 -328t222 -238.5t315.5 -88.5q303 0 499 266l86 -68q-234 -297 -585 -297q-156 0 -292.5 58 t-233 158t-152 240t-55.5 298z" />
<glyph unicode="D" horiz-adv-x="1318" d="M166 0v1446h319q210 0 375 -90t257.5 -255t92.5 -378q0 -324 -201 -523.5t-536 -199.5h-307zM276 94h197q283 0 454 175t171 454q0 280 -172.5 453.5t-454.5 173.5h-195v-1256z" />
<glyph unicode="E" horiz-adv-x="962" d="M166 0v1446h690v-98h-580v-553h539v-97h-539v-602h580v-96h-690z" />
<glyph unicode="F" horiz-adv-x="899" d="M166 0v1446h655v-98h-545v-557h504v-97h-504v-694h-110z" />
<glyph unicode="G" horiz-adv-x="1550" d="M109 723q0 161 58.5 302t156.5 238.5t230 153.5t277 56q168 0 295.5 -57t233.5 -163l-86 -65q-182 186 -440 186q-172 0 -312.5 -87.5t-219.5 -236.5t-79 -327q0 -134 44.5 -254.5t123 -210.5t194.5 -142.5t251 -52.5q152 0 269 72t179 192t66 269h-543v92h659 q0 -151 -36 -273.5t-96 -204t-142.5 -137t-172.5 -80t-188 -24.5q-201 0 -366 95.5t-260.5 268.5t-95.5 390z" />
<glyph unicode="H" horiz-adv-x="1409" d="M166 0v1446h113v-651h851v651h113v-1446h-113v698h-851v-698h-113z" />
<glyph unicode="I" horiz-adv-x="444" d="M166 0v1446h113v-1446h-113z" />
<glyph unicode="J" horiz-adv-x="933" d="M47 281l103 32q66 -247 264 -247q122 0 188 68.5t66 227.5v1084h110v-1081q0 -110 -28.5 -189t-80.5 -122.5t-115 -63t-142 -19.5q-135 0 -228.5 81t-136.5 229z" />
<glyph unicode="K" horiz-adv-x="1079" d="M166 0v1446h110v-655h5l651 655h137l-686 -694l696 -752h-141l-655 698h-7v-698h-110z" />
<glyph unicode="L" horiz-adv-x="942" d="M166 0v1446h110v-1350h605v-96h-715z" />
<glyph unicode="M" horiz-adv-x="1685" d="M166 0v1475l676 -1295l678 1290v-1470h-111v848l2 190l-569 -1063l-572 1078l6 -201v-852h-110z" />
<glyph unicode="N" horiz-adv-x="1388" d="M166 0v1470h2l944 -1198v1174h111v-1473h-2l-945 1192v-1165h-110z" />
<glyph unicode="O" horiz-adv-x="1693" d="M109 721q0 157 56.5 296t153.5 239t234 158.5t293 58.5q208 0 378 -99t265.5 -271.5t95.5 -381.5t-95.5 -381.5t-265.5 -271.5t-378 -99q-156 0 -293 58.5t-234 158.5t-153.5 239t-56.5 296zM225 721q0 -178 79.5 -327.5t223 -237.5t318.5 -88q176 0 319.5 88t223 237 t79.5 328t-79.5 328t-223 237t-319.5 88q-175 0 -318.5 -88t-223 -237.5t-79.5 -327.5z" />
<glyph unicode="P" horiz-adv-x="950" d="M166 0v1446h305q183 0 295.5 -114.5t112.5 -293.5q0 -199 -111 -311.5t-319 -112.5h-173v-614h-110zM274 705h177q158 0 237.5 90.5t79.5 240.5q0 137 -85 227.5t-245 90.5h-164v-649z" />
<glyph unicode="Q" horiz-adv-x="1693" d="M109 721q0 209 95.5 381t265 271.5t376.5 99.5q208 0 378 -99.5t265.5 -271.5t95.5 -381q0 -199 -88 -365.5t-244 -268.5t-350 -116v-325h-108v325q-196 13 -353 114.5t-245 268.5t-88 367zM223 721q0 -170 73 -314t204.5 -234t294.5 -103v282h108v-282 q246 22 406.5 207.5t160.5 443.5q0 178 -80 327.5t-224 237.5t-320 88q-175 0 -318.5 -88t-224 -237.5t-80.5 -327.5z" />
<glyph unicode="R" horiz-adv-x="970" d="M166 0v1446h270q79 0 153 -29t131 -80t91.5 -127t34.5 -163q0 -185 -113 -290.5t-321 -105.5l526 -651h-131l-514 641h-17v-641h-110zM274 731h146q141 0 228 81t87 230q0 131 -93 221.5t-232 90.5h-136v-623z" />
<glyph unicode="S" horiz-adv-x="886" d="M45 162l72 76q58 -78 129.5 -125t175.5 -47q110 0 187 75.5t77 212.5q0 64 -19.5 119t-53 96t-76 77.5t-90.5 69t-95.5 65t-90 69.5t-76 78.5t-53 97t-19.5 119.5q0 54 19 108t58.5 105t113.5 83t171 32q162 0 303 -125l-61 -86q-119 112 -248 112q-104 0 -175 -62 t-71 -167q0 -67 31.5 -123t82.5 -98.5t112 -83t122 -86.5t112 -99t82.5 -129.5t31.5 -169.5t-32 -168t-85.5 -121.5t-119.5 -71t-138 -24.5q-128 0 -215.5 47.5t-161.5 143.5z" />
<glyph unicode="T" horiz-adv-x="886" d="M33 1348v98h821v-98h-356v-1348h-113v1348h-352z" />
<glyph unicode="U" horiz-adv-x="1265" d="M156 459v987h112v-1004q0 -175 103.5 -273.5t261.5 -98.5t262 99t104 275v1002h111v-989q0 -110 -30.5 -197t-78.5 -140t-113 -87.5t-127.5 -48t-127.5 -13.5t-126.5 13t-127 47.5t-113.5 87.5t-79 140.5t-31 199.5z" />
<glyph unicode="V" horiz-adv-x="1275" d="M33 1446h121l485 -1208l483 1208h123l-608 -1471z" />
<glyph unicode="W" horiz-adv-x="1910" d="M66 1446h112l383 -1163l393 1187l400 -1187l381 1163h112l-493 -1471l-402 1190l-397 -1190z" />
<glyph unicode="X" horiz-adv-x="1095" d="M51 1446h121l377 -639l377 639h118l-432 -727l430 -719h-120l-377 639l-373 -639h-117l426 731z" />
<glyph unicode="Y" horiz-adv-x="1140" d="M45 1446h119l407 -733l408 733h119l-475 -838v-608h-107v608z" />
<glyph unicode="Z" horiz-adv-x="1054" d="M61 0l758 1348h-753v98h925l-760 -1348h762v-98h-932z" />
<glyph unicode="[" horiz-adv-x="528" d="M143 -356v1841h289v-90h-186v-1661h186v-90h-289z" />
<glyph unicode="\" horiz-adv-x="606" d="M14 1446h90l490 -1698h-92z" />
<glyph unicode="]" horiz-adv-x="528" d="M96 -266h185v1661h-185v90h289v-1841h-289v90z" />
<glyph unicode="^" horiz-adv-x="1024" d="M37 805l491 604l492 -604h-100l-392 473l-391 -473h-100z" />
<glyph unicode="_" horiz-adv-x="1024" d="M-20 -184h1064v-54h-1064v54z" />
<glyph unicode="`" horiz-adv-x="792" d="M178 1284l96 62l285 -279l-47 -35z" />
<glyph unicode="a" horiz-adv-x="1116" d="M94 432q0 192 121 323.5t301 131.5q117 0 209.5 -53t140.5 -170l-4 118v88h103v-870h-103v121l4 78q-16 -37 -42 -71.5t-67 -68.5t-103.5 -54.5t-137.5 -20.5q-179 0 -300.5 128.5t-121.5 319.5zM199 432q0 -151 94 -254.5t239 -103.5q43 0 86.5 10.5t89 37t80 66 t56.5 102.5t22 142q0 92 -28.5 164t-76.5 114.5t-106.5 64.5t-122.5 22q-144 0 -238.5 -106.5t-94.5 -258.5z" />
<glyph unicode="b" horiz-adv-x="1116" d="M152 0v1446h102v-617l-4 -165q48 117 140.5 170t209.5 53q180 0 301 -131.5t121 -323.5q0 -191 -121.5 -319.5t-300.5 -128.5q-75 0 -137.5 20.5t-103.5 54.5t-67 68.5t-42 71.5l4 -117v-82h-102zM250 432q0 -79 22 -142t56.5 -102.5t80 -66t89 -37t86.5 -10.5 q143 0 238.5 103.5t95.5 254.5q0 152 -95 258.5t-239 106.5q-64 0 -122.5 -22t-106.5 -64.5t-76.5 -114.5t-28.5 -164z" />
<glyph unicode="c" horiz-adv-x="931" d="M94 436q0 191 121.5 321t314.5 130q87 0 175.5 -33t154.5 -102l-61 -70q-51 58 -120.5 87.5t-143.5 29.5q-144 0 -239 -106t-95 -259q0 -154 93.5 -258t242.5 -104q73 0 143.5 29t120.5 87l61 -71q-144 -135 -332 -135t-312 129t-124 325z" />
<glyph unicode="d" horiz-adv-x="1116" d="M94 432q0 192 121 323.5t301 131.5q117 0 209.5 -53t140.5 -170l-4 182v600h103v-1446h-103v84l4 115q-16 -37 -42 -71.5t-67 -68.5t-103.5 -54.5t-137.5 -20.5q-179 0 -300.5 128.5t-121.5 319.5zM199 432q0 -151 95 -254.5t238 -103.5q44 0 87.5 10.5t89 37t79.5 66 t56 102.5t22 142q0 92 -28.5 164t-76.5 114.5t-106.5 64.5t-122.5 22q-144 0 -238.5 -106.5t-94.5 -258.5z" />
<glyph unicode="e" horiz-adv-x="1003" d="M94 434q0 124 53 227t151.5 164.5t221.5 61.5q182 0 291 -133.5t109 -352.5h-719q5 -144 93 -237.5t230 -93.5q74 0 152 27.5t131 80.5l55 -67q-135 -129 -346 -129q-187 0 -304.5 126.5t-117.5 325.5zM203 481h610q-11 139 -86 227.5t-209 88.5t-221.5 -91t-93.5 -225z " />
<glyph unicode="f" horiz-adv-x="552" d="M41 778v92h141v279q0 148 70 226.5t209 78.5q71 0 127 -10v-92q-46 10 -111 10q-192 0 -192 -205v-287h247v-92h-247v-778h-103v778h-141z" />
<glyph unicode="g" horiz-adv-x="1116" d="M94 432q0 195 120 325t306 130q117 0 209.5 -54.5t136.5 -166.5l-4 129v75h103v-915q0 -199 -107 -314.5t-323 -115.5q-128 0 -221 47t-177 131l62 72q74 -78 152 -121t184 -43q327 0 327 360v123l4 107q-17 -37 -42.5 -71t-66.5 -68.5t-103 -55t-136 -20.5 q-184 0 -304 130t-120 316zM199 432q0 -151 95 -254.5t238 -103.5q44 0 87.5 10.5t89 37t79.5 66t56 102.5t22 142q0 92 -28.5 164t-76.5 114.5t-106.5 64.5t-122.5 22q-144 0 -238.5 -106.5t-94.5 -258.5z" />
<glyph unicode="h" horiz-adv-x="1038" d="M152 0v1446h102v-713h4q43 69 117 111.5t176 42.5q89 0 156.5 -27.5t106.5 -76t58 -108.5t19 -132v-543h-103v504q0 139 -64 216t-198 77q-117 0 -194.5 -71t-77.5 -173v-553h-102z" />
<glyph unicode="i" horiz-adv-x="405" d="M131 1178q0 29 20.5 49t51.5 20q29 0 50 -20.5t21 -48.5q0 -30 -21 -51t-50 -21q-31 0 -51.5 20.5t-20.5 51.5zM152 0v870h102v-870h-102z" />
<glyph unicode="j" horiz-adv-x="405" d="M131 1178q0 29 20.5 49t51.5 20q30 0 50.5 -20.5t20.5 -48.5q0 -30 -21 -51t-50 -21q-31 0 -51.5 20.5t-20.5 51.5zM152 -457v1327h102v-1327h-102z" />
<glyph unicode="k" horiz-adv-x="815" d="M152 0v1446h102v-932l389 356h133l-442 -407l454 -463h-131l-403 410v-410h-102z" />
<glyph unicode="l" horiz-adv-x="405" d="M152 0v1446h102v-1446h-102z" />
<glyph unicode="m" horiz-adv-x="1628" d="M152 0v870h102v-137h2q39 73 111 113.5t168 40.5q114 0 189.5 -50.5t106.5 -134.5q42 89 124 137t184 48q89 0 156 -27t106 -75t58.5 -108.5t19.5 -131.5v-545h-103v510q0 138 -64 211.5t-192 73.5q-113 0 -182.5 -68t-69.5 -170v-557h-102v510q0 137 -65 211t-195 74 q-112 0 -182 -68t-70 -170v-557h-102z" />
<glyph unicode="n" horiz-adv-x="1040" d="M152 0v870h102v-137h2q45 72 119.5 113t175.5 41q89 0 156.5 -27.5t106.5 -76t58 -108.5t19 -132v-543h-103v504q0 139 -64 216t-198 77q-117 0 -194.5 -71t-77.5 -173v-553h-102z" />
<glyph unicode="o" horiz-adv-x="1085" d="M94 434q0 192 130 322.5t319 130.5q188 0 318 -130t130 -323q0 -192 -129.5 -322t-318.5 -130t-319 130t-130 322zM199 432q0 -154 99 -257t245 -103t245 103t99 257t-99 258.5t-245 104.5t-245 -104.5t-99 -258.5z" />
<glyph unicode="p" horiz-adv-x="1116" d="M152 -455v1325h102v-61l-4 -145q45 114 137.5 168.5t210.5 54.5q185 0 304.5 -131t119.5 -324q0 -189 -121 -318.5t-303 -129.5q-72 0 -133 19.5t-102 52.5t-68 68t-45 75l4 -170v-484h-102zM250 432q0 -79 22 -142t56.5 -102.5t80 -66t89 -37t86.5 -10.5 q143 0 238.5 103.5t95.5 254.5q0 152 -95 258.5t-239 106.5q-64 0 -122.5 -22t-106.5 -64.5t-76.5 -114.5t-28.5 -164z" />
<glyph unicode="q" horiz-adv-x="1116" d="M94 432q0 192 121 323.5t301 131.5q117 0 209.5 -53t140.5 -170l-4 157v49h103v-1327h-103v527l4 129q-16 -37 -42 -71.5t-67 -68.5t-103.5 -54.5t-137.5 -20.5q-179 0 -300.5 128.5t-121.5 319.5zM199 432q0 -151 95 -255.5t238 -104.5q44 0 87.5 11t89 37.5t79.5 66 t56 103t22 142.5q0 92 -28.5 164t-76.5 114.5t-106.5 64.5t-122.5 22q-144 0 -238.5 -106.5t-94.5 -258.5z" />
<glyph unicode="r" horiz-adv-x="673" d="M152 0v870h102v-137h2q32 77 94.5 115.5t134.5 38.5q98 0 168 -47l-47 -88q-61 45 -141 45q-93 0 -152 -75.5t-59 -178.5v-543h-102z" />
<glyph unicode="s" horiz-adv-x="651" d="M37 82l47 82q114 -96 223 -96q73 0 121.5 42.5t48.5 112.5q0 46 -22 82t-57.5 59.5t-78.5 45t-85.5 44t-78 50t-57.5 70t-22 96.5q0 102 73 159.5t189 57.5q69 0 133.5 -23t110.5 -63l-43 -78q-36 33 -89.5 54.5t-107.5 21.5q-79 0 -122.5 -36.5t-43.5 -92.5 q0 -40 22 -71t57.5 -51.5t78.5 -40t86 -43t78.5 -53t57.5 -77.5t22 -109q0 -106 -72 -174.5t-195 -68.5q-158 0 -274 100z" />
<glyph unicode="t" horiz-adv-x="524" d="M41 778v92h158v355h100v-355h188v-92h-188v-778h-102v778h-156z" />
<glyph unicode="u" horiz-adv-x="1026" d="M147 328v542h105v-514q0 -136 63 -210t193 -74q113 0 187.5 69t74.5 170v559h104v-870h-100l-2 137h-2q-40 -66 -114 -110.5t-175 -44.5q-89 0 -155 27.5t-104 76.5t-56.5 109.5t-18.5 132.5z" />
<glyph unicode="v" horiz-adv-x="901" d="M33 870h112l310 -680l301 680h112l-415 -893z" />
<glyph unicode="w" horiz-adv-x="1359" d="M43 870h115l233 -661l289 678l291 -678l231 661h115l-340 -893l-297 685l-299 -685z" />
<glyph unicode="x" horiz-adv-x="831" d="M27 0l323 438l-313 432h115l270 -366l258 366h115l-312 -430l322 -440h-115l-276 373l-273 -373h-114z" />
<glyph unicode="y" horiz-adv-x="913" d="M33 870h114l330 -731l293 731h111l-559 -1327h-99l199 486z" />
<glyph unicode="z" horiz-adv-x="727" d="M47 0l465 776h-453v94h619l-463 -778h455v-92h-623z" />
<glyph unicode="{" horiz-adv-x="528" d="M39 516v72q41 11 64.5 19.5t48.5 25.5t38 39.5t21 59t8 87.5q0 61 -21.5 204t-21.5 200q0 140 62.5 197t177.5 57h65v-84h-49q-153 0 -153 -174q0 -61 21.5 -211t21.5 -201q0 -122 -48.5 -180t-142.5 -74q95 -19 143 -76.5t48 -179.5q0 -51 -21.5 -201t-21.5 -211 q0 -174 153 -174h49v-84h-65q-115 0 -177.5 57t-62.5 197q0 57 21.5 200t21.5 204q0 51 -8 87.5t-21 59t-38 39.5t-48.5 25.5t-64.5 19.5z" />
<glyph unicode="|" horiz-adv-x="575" d="M246 -496v2048h84v-2048h-84z" />
<glyph unicode="}" horiz-adv-x="528" d="M47 -289h49q154 0 154 174q0 61 -21.5 211t-21.5 201q0 83 24 137.5t64 80.5t102 38q-94 16 -142 73.5t-48 180.5q0 51 21.5 201t21.5 211q0 174 -154 174h-49v84h66q115 0 177 -56.5t62 -197.5q0 -57 -21.5 -200t-21.5 -204q0 -51 8 -87.5t21 -59t38 -39.5t48.5 -25.5 t64.5 -19.5v-72q-41 -11 -64.5 -19.5t-48.5 -25.5t-38 -39.5t-21 -59t-8 -87.5q0 -61 21.5 -204t21.5 -200q0 -141 -62 -197.5t-177 -56.5h-66v84z" />
<glyph unicode="~" horiz-adv-x="1024" d="M47 467q0 83 18 145t43 94.5t60.5 51.5t62 23.5t56.5 4.5q51 0 102.5 -23t94 -56t82.5 -65.5t83.5 -55.5t83.5 -23q77 0 124.5 57.5t47.5 184.5h72q0 -318 -236 -318q-53 0 -106 23t-96.5 56t-84 66t-81.5 56t-76 23q-21 0 -40.5 -3.5t-46 -18.5t-45.5 -39.5t-32.5 -72 t-13.5 -110.5h-72z" />
<glyph unicode="&#xa1;" horiz-adv-x="432" d="M133 799q0 33 24.5 56.5t57.5 23.5q34 0 58 -24t24 -58q0 -31 -24.5 -55.5t-57.5 -24.5q-32 0 -57 25t-25 57zM162 -584l4 990h96l6 -990h-106z" />
<glyph unicode="&#xa2;" d="M176 668q0 174 107 301t278 147v199h92v-197q83 -6 162 -41.5t139 -99.5l-67 -70q-89 103 -234 119v-719q143 13 236 119l65 -74q-126 -126 -301 -139v-215h-92v217q-170 20 -277.5 145.5t-107.5 307.5zM283 668q0 -138 76 -237.5t202 -121.5v713q-124 -20 -201 -119 t-77 -235z" />
<glyph unicode="&#xa3;" d="M127 711v84h195q-6 13 -24.5 56.5t-25.5 61.5t-21 57t-20 65t-11 62.5t-5 71.5q0 136 102 220t246 84q116 0 209 -55t133 -173l-90 -37q-73 172 -246 172q-116 0 -181.5 -66.5t-65.5 -158.5q0 -41 12.5 -91t24 -81t40 -98t37.5 -90h404v-84h-373q35 -110 35 -195 q0 -301 -199 -426h385q126 0 178 40t52 136v49h102v-45q0 -74 -14 -122t-50.5 -83t-101.5 -50t-166 -15h-559v84q103 17 185 131.5t81 296.5q-3 100 -39 199h-229z" />
<glyph unicode="&#xa4;" d="M127 313l125 123q-102 120 -102 271q0 148 98 260l-121 123l51 51l119 -121q120 98 266 98q145 0 266 -96l121 119l49 -51l-120 -123q98 -116 98 -260q0 -153 -105 -271l127 -123l-49 -51l-129 127q-115 -94 -258 -94q-141 0 -258 92l-127 -125zM240 707q0 -134 95 -229 t228 -95t228.5 95.5t95.5 228.5t-95 228t-229 95q-133 0 -228 -95t-95 -228z" />
<glyph unicode="&#xa5;" d="M96 1446h129l346 -713l338 713h123l-362 -741h317v-80h-362v-185h362v-82h-364v-358h-105v358h-352v82h350v185h-350v80h305z" />
<glyph unicode="&#xa6;" horiz-adv-x="575" d="M246 299h84v-795h-84v795zM246 758v794h84v-794h-84z" />
<glyph unicode="&#xa7;" horiz-adv-x="968" d="M49 -43l57 72q27 -30 52.5 -52t64.5 -46.5t91 -38t112 -13.5q56 0 102 11.5t85 37.5t61 74.5t22 116.5q0 60 -20.5 108t-56 80.5t-81 59.5t-95.5 49t-100 45t-95.5 51t-81 63t-56 86t-20.5 115q0 138 115 236q-45 68 -45 166q0 137 92.5 216t236.5 79q175 0 324 -123 l-51 -72q-119 115 -260 115q-123 0 -181.5 -60.5t-58.5 -144.5q0 -54 20.5 -95.5t55.5 -69.5t80.5 -51t95.5 -42.5t100 -40.5t95.5 -49.5t80.5 -65t55.5 -92t20.5 -125.5q0 -162 -100 -262q35 -72 35 -168q0 -88 -31 -154t-84.5 -103t-117.5 -55t-138 -18q-227 0 -381 160z M182 782q0 -71 36 -121.5t97 -83t127 -60t141.5 -70.5t125.5 -97q63 81 63 207q0 56 -17.5 99t-49.5 71t-71.5 50t-88.5 41t-94.5 37.5t-95.5 46.5t-87 61q-36 -31 -61 -79t-25 -102z" />
<glyph unicode="&#xa8;" horiz-adv-x="792" d="M164 1178q0 29 20.5 49t51.5 20q30 0 51.5 -20.5t21.5 -48.5q0 -31 -21 -51.5t-52 -20.5t-51.5 20.5t-20.5 51.5zM547 1178q0 29 20 49t51 20t52.5 -20.5t21.5 -48.5q0 -31 -21.5 -51.5t-52.5 -20.5t-51 20.5t-20 51.5z" />
<glyph unicode="&#xa9;" horiz-adv-x="1736" d="M109 723q0 205 102 379t276.5 274.5t380.5 100.5q154 0 294.5 -59.5t242.5 -160.5t162.5 -240.5t60.5 -293.5q0 -155 -60.5 -295t-162.5 -241t-242.5 -160.5t-294.5 -59.5t-294.5 59.5t-242 160.5t-162 241t-60.5 295zM164 721q0 -191 94 -352.5t256 -255t354 -93.5 t354.5 93.5t256.5 255t94 352.5q0 144 -55.5 274t-150 223t-225 148t-274.5 55t-274.5 -55t-224.5 -148t-149.5 -223t-55.5 -274zM430 729q0 192 124 322.5t318 130.5q89 0 177.5 -33.5t156.5 -104.5l-59 -65q-54 58 -126 87.5t-147 29.5q-147 0 -244.5 -107t-97.5 -260 q0 -155 97 -259.5t250 -104.5q72 0 145 30t125 86l57 -67q-141 -135 -334 -135q-188 0 -315 128t-127 322z" />
<glyph unicode="&#xaa;" horiz-adv-x="817" d="M96 1143q0 136 85.5 225.5t213.5 89.5q162 0 230 -153v141h82v-606h-82v143q-24 -68 -85 -111t-145 -43q-128 0 -213.5 89.5t-85.5 224.5zM98 616v70h621v-70h-621zM182 1143q0 -103 63 -172.5t163 -69.5q99 0 159 69t60 173q0 102 -60 170.5t-159 68.5q-100 0 -163 -69 t-63 -170z" />
<glyph unicode="&#xab;" horiz-adv-x="884" d="M43 401l305 398h111l-307 -398l313 -401h-111zM389 401l305 398h111l-307 -398l313 -401h-111z" />
<glyph unicode="&#xac;" d="M102 707v81h940v-450h-86v369h-854z" />
<glyph unicode="&#xad;" horiz-adv-x="677" d="M92 412v90h494v-90h-494z" />
<glyph unicode="&#xae;" horiz-adv-x="991" d="M80 1061q0 172 122 294t294 122t293.5 -122t121.5 -294q0 -112 -55.5 -207t-151 -151t-208.5 -56q-172 0 -294 122t-122 292zM123 1061q0 -152 109.5 -260.5t263.5 -108.5t263 108.5t109 260.5q0 154 -109 262.5t-263 108.5t-263.5 -108.5t-109.5 -262.5zM371 819v500 h133q59 0 101 -38.5t42 -104.5q0 -47 -29 -84.5t-79 -49.5l112 -223h-55l-107 215h-71v-215h-47zM418 1075h71q53 0 80 29.5t27 71.5q0 102 -107 102h-71v-203z" />
<glyph unicode="&#xaf;" horiz-adv-x="792" d="M127 1139v80h539v-80h-539z" />
<glyph unicode="&#xb0;" horiz-adv-x="802" d="M82 1153q0 132 93.5 226t225.5 94t226 -94t94 -226t-94 -225.5t-226 -93.5t-225.5 93.5t-93.5 225.5zM145 1153q0 -106 74.5 -182t179.5 -76q106 0 182 76t76 182t-76 181t-182 75t-180 -75t-74 -181z" />
<glyph unicode="&#xb1;" d="M96 0v80h938v-80h-938zM96 635v82h420v403h94v-403h424v-82h-424v-414h-94v414h-420z" />
<glyph unicode="&#xb2;" horiz-adv-x="804" d="M76 614v9l401 479q71 83 92 117q43 73 43 157q0 85 -56 135t-144 50q-82 0 -146.5 -43t-87.5 -129l-88 26q34 116 119 173t203 57q127 0 212 -72.5t85 -190.5q0 -45 -11 -88t-23 -71t-39.5 -65.5t-40 -52t-44.5 -50.5l-305 -355h487v-86h-657z" />
<glyph unicode="&#xb3;" horiz-adv-x="804" d="M74 741l67 56q95 -125 252 -125q94 0 161 54.5t67 158.5q0 209 -291 209h-74v73h78q40 0 82.5 12.5t81.5 37t63.5 66t24.5 93.5q0 92 -58 139.5t-143 47.5q-137 0 -217 -117l-64 55q113 144 291 144q56 0 106 -15t92 -44t66.5 -79t24.5 -114q0 -96 -64.5 -165t-166.5 -91 q122 -10 193 -71t71 -181q0 -140 -91.5 -214.5t-228.5 -74.5q-212 0 -323 145z" />
<glyph unicode="&#xb4;" horiz-adv-x="792" d="M186 1067l285 279l98 -62l-333 -252z" />
<glyph unicode="&#xb5;" horiz-adv-x="1026" d="M147 -340v1210h105v-514q0 -136 63 -210t193 -74q113 0 187.5 69t74.5 170v559h104v-870h-98l-2 137h-4q-40 -66 -112 -110.5t-173 -44.5q-172 0 -239 131l4 -453h-103z" />
<glyph unicode="&#xb6;" horiz-adv-x="1204" d="M63 997q0 109 36 195t99.5 141t148.5 84t185 29h508v-1706h-90v1616h-295v-1616h-88v807q-106 1 -194 25.5t-159 76t-111 140t-40 208.5z" />
<glyph unicode="&#xb7;" horiz-adv-x="317" d="M78 426q0 32 24 56t56 24q34 0 58 -24t24 -58q0 -32 -24 -56t-58 -24q-32 0 -56 24t-24 58z" />
<glyph unicode="&#xb8;" horiz-adv-x="1005" d="M317 -385l41 43q43 -43 105 -43q60 0 93.5 35t33.5 98q0 72 -41.5 102.5t-102.5 30.5v58q95 0 155.5 -50.5t60.5 -140.5q0 -86 -53 -138t-142 -52q-90 0 -150 57z" />
<glyph unicode="&#xb9;" horiz-adv-x="804" d="M121 1434v86l368 110h9v-1016h-95v908z" />
<glyph unicode="&#xba;" horiz-adv-x="817" d="M96 616v70h623v-70h-623zM96 1143q0 132 90 223.5t222 91.5t221.5 -91.5t89.5 -223.5t-89.5 -224t-221.5 -92t-222 92t-90 224zM182 1143q0 -101 64 -171.5t162 -70.5t161.5 70t63.5 172q0 100 -63.5 169.5t-161.5 69.5t-162 -69.5t-64 -169.5z" />
<glyph unicode="&#xbb;" horiz-adv-x="884" d="M76 0l311 401l-305 398h108l306 -398l-312 -401h-108zM422 0l311 401l-305 398h109l305 -398l-312 -401h-108z" />
<glyph unicode="&#xbc;" horiz-adv-x="1675" d="M90 1321v80l326 98h6v-885h-88v781zM246 0l1046 1452h76l-1046 -1452h-76zM958 227v6l328 644h94l-293 -576h273v182h88v-182h143v-74h-143v-227h-88v227h-402z" />
<glyph unicode="&#xbd;" horiz-adv-x="1675" d="M90 1321v80l326 98h6v-885h-88v781zM236 0l1046 1452h76l-1047 -1452h-75zM1016 0v18l340 398q4 5 28.5 33t30 35.5t22 32t21.5 40t11 41t6 51.5q0 73 -48.5 118.5t-121.5 45.5q-70 0 -124 -36.5t-73 -110.5l-80 24q30 102 105.5 152.5t177.5 50.5q111 0 183.5 -65 t72.5 -171q0 -25 -4 -48.5t-8 -41t-15.5 -40t-17 -33t-22.5 -32.5t-21.5 -27.5t-24.5 -28.5t-22 -25l-265 -299h420v-82h-571z" />
<glyph unicode="&#xbe;" horiz-adv-x="1675" d="M70 725l63 53q87 -104 215 -104q80 0 135.5 44.5t55.5 131.5q0 90 -60.5 134t-187.5 44h-64v68h66q49 0 97 18.5t84 60.5t36 99q0 79 -48.5 117.5t-121.5 38.5q-114 0 -182 -95l-58 49q100 123 250 123q104 0 178 -56t74 -163q0 -85 -56 -143.5t-147 -77.5 q232 -18 232 -219q0 -121 -80 -185.5t-197 -64.5q-181 0 -284 127zM305 0l1047 1452h75l-1046 -1452h-76zM983 227v6l328 644h94l-293 -576h272v182h89v-182h143v-74h-143v-227h-89v227h-401z" />
<glyph unicode="&#xbf;" horiz-adv-x="757" d="M55 -317q0 96 66 237l221 479h113l-228 -489q-61 -124 -61 -213q0 -95 53 -153t150 -58q60 0 107 22.5t77.5 56.5t64.5 89l87 -37q-46 -99 -132.5 -163t-210.5 -64q-147 0 -227 83t-80 210zM348 799q0 34 24 57t58 23q32 0 56 -24t24 -58q0 -31 -24 -55.5t-56 -24.5 q-33 0 -57.5 24.5t-24.5 57.5z" />
<glyph unicode="&#xc0;" horiz-adv-x="1288" d="M33 0l608 1483h2l612 -1483h-116l-142 346h-712l-135 -346h-117zM319 440h642l-320 797zM373 1704l76 86l382 -195l-28 -43z" />
<glyph unicode="&#xc1;" horiz-adv-x="1288" d="M33 0l608 1483h2l612 -1483h-116l-142 346h-712l-135 -346h-117zM319 440h642l-320 797zM455 1595l383 195l75 -86l-432 -152z" />
<glyph unicode="&#xc2;" horiz-adv-x="1288" d="M33 0l608 1483h2l612 -1483h-116l-142 346h-712l-135 -346h-117zM319 440h642l-320 797zM319 1608l320 186l324 -186l-31 -56l-293 152l-287 -152z" />
<glyph unicode="&#xc3;" horiz-adv-x="1288" d="M33 0l608 1483h2l612 -1483h-116l-142 346h-712l-135 -346h-117zM299 1616q32 62 80.5 96.5t101.5 34.5q63 0 167 -47t157 -47q70 0 127 94l57 -43q-33 -63 -84 -96t-98 -33q-63 0 -166 46t-156 46q-36 0 -69.5 -25t-57.5 -67zM319 440h642l-320 797z" />
<glyph unicode="&#xc4;" horiz-adv-x="1288" d="M33 0l608 1483h2l612 -1483h-116l-142 346h-712l-135 -346h-117zM319 440h642l-320 797zM373 1659q0 29 22.5 49.5t53.5 20.5q29 0 52 -21t23 -49q0 -30 -22.5 -52t-52.5 -22q-31 0 -53.5 21.5t-22.5 52.5zM760 1659q0 29 21.5 49.5t52.5 20.5q29 0 51 -21t22 -49 q0 -31 -21.5 -52.5t-51.5 -21.5q-31 0 -52.5 21.5t-21.5 52.5z" />
<glyph unicode="&#xc5;" horiz-adv-x="1288" d="M33 0l608 1483h2l612 -1483h-116l-142 346h-712l-135 -346h-117zM319 440h642l-320 797zM442 1718q0 79 59.5 137t139.5 58q81 0 139 -57.5t58 -137.5t-57.5 -137t-139.5 -57q-80 0 -139.5 57.5t-59.5 136.5zM508 1718q0 -59 39 -99t94 -40q58 0 95.5 39.5t37.5 99.5 q0 59 -37.5 99.5t-95.5 40.5q-54 0 -93.5 -41t-39.5 -99z" />
<glyph unicode="&#xc6;" horiz-adv-x="1779" d="M8 0l948 1446h717v-98h-581v-553h540v-97h-540v-602h581v-96h-690l-2 414h-575l-275 -414h-123zM463 504h518v803z" />
<glyph unicode="&#xc7;" horiz-adv-x="1486" d="M109 723q0 155 57.5 294.5t155.5 239t232.5 158t283.5 58.5q355 0 579 -285l-88 -66q-98 124 -216.5 188t-272.5 64q-169 0 -310.5 -87t-223 -237t-81.5 -327q0 -178 79.5 -328t222 -238.5t315.5 -88.5q303 0 499 266l86 -68q-234 -297 -585 -297q-156 0 -292.5 58 t-233 158t-152 240t-55.5 298zM649 -426l41 43q43 -43 105 -43q60 0 93.5 35t33.5 98q0 72 -41.5 102.5t-102.5 30.5v58q95 0 155 -50.5t60 -140.5q0 -87 -52.5 -138.5t-141.5 -51.5q-90 0 -150 57z" />
<glyph unicode="&#xc8;" horiz-adv-x="962" d="M166 0v1446h690v-98h-580v-553h539v-97h-539v-602h580v-96h-690zM244 1708l75 86l383 -195l-28 -43z" />
<glyph unicode="&#xc9;" horiz-adv-x="962" d="M166 0v1446h690v-98h-580v-553h539v-97h-539v-602h580v-96h-690zM317 1599l383 195l76 -86l-432 -152z" />
<glyph unicode="&#xca;" horiz-adv-x="962" d="M166 0v1446h690v-98h-580v-553h539v-97h-539v-602h580v-96h-690zM188 1616l320 186l323 -186l-30 -55l-293 151l-287 -151z" />
<glyph unicode="&#xcb;" horiz-adv-x="962" d="M166 0v1446h690v-98h-580v-553h539v-97h-539v-602h580v-96h-690zM248 1667q0 29 22.5 49.5t53.5 20.5q29 0 52 -21t23 -49q0 -30 -22.5 -52t-52.5 -22q-31 0 -53.5 21.5t-22.5 52.5zM635 1667q0 29 21.5 49.5t52.5 20.5q29 0 51 -21t22 -49q0 -31 -22 -52.5t-51 -21.5 q-31 0 -52.5 21.5t-21.5 52.5z" />
<glyph unicode="&#xcc;" horiz-adv-x="444" d="M-84 1708l76 86l383 -195l-29 -43zM166 0v1446h113v-1446h-113z" />
<glyph unicode="&#xcd;" horiz-adv-x="444" d="M70 1599l383 195l75 -86l-432 -152zM166 0v1446h113v-1446h-113z" />
<glyph unicode="&#xce;" horiz-adv-x="444" d="M-98 1616l319 186l324 -186l-31 -55l-293 151l-287 -151zM166 0v1446h113v-1446h-113z" />
<glyph unicode="&#xcf;" horiz-adv-x="444" d="M-45 1667q0 29 22.5 49.5t53.5 20.5q29 0 52 -21t23 -49q0 -30 -22.5 -52t-52.5 -22q-31 0 -53.5 21.5t-22.5 52.5zM166 0v1446h113v-1446h-113zM342 1667q0 29 21.5 49.5t52.5 20.5q29 0 51 -21t22 -49q0 -31 -21.5 -52.5t-51.5 -21.5q-31 0 -52.5 21.5t-21.5 52.5z" />
<glyph unicode="&#xd0;" horiz-adv-x="1318" d="M23 696v99h143v651h317q211 0 376.5 -90t258 -255t92.5 -378q0 -324 -202 -523.5t-537 -199.5h-305v696h-143zM274 94h197q278 0 452.5 176t174.5 453q0 279 -175 453t-452 174h-197v-555h412v-99h-412v-602z" />
<glyph unicode="&#xd1;" horiz-adv-x="1388" d="M166 0v1470h2l944 -1198v1174h111v-1473h-2l-945 1192v-1165h-110zM377 1620q32 62 80.5 96.5t101.5 34.5q63 0 167 -47t157 -47q70 0 127 94l57 -43q-33 -63 -84 -96t-98 -33q-63 0 -166 46t-156 46q-36 0 -69.5 -25t-57.5 -67z" />
<glyph unicode="&#xd2;" horiz-adv-x="1693" d="M109 721q0 157 56.5 296t153.5 239t234 158.5t293 58.5q208 0 378 -99t265.5 -271.5t95.5 -381.5t-95.5 -381.5t-265.5 -271.5t-378 -99q-156 0 -293 58.5t-234 158.5t-153.5 239t-56.5 296zM225 721q0 -178 79.5 -327.5t223 -237.5t318.5 -88q176 0 319.5 88t223 237 t79.5 328t-79.5 328t-223 237t-319.5 88q-175 0 -318.5 -88t-223 -237.5t-79.5 -327.5zM588 1708l76 86l383 -195l-29 -43z" />
<glyph unicode="&#xd3;" horiz-adv-x="1693" d="M109 721q0 157 56.5 296t153.5 239t234 158.5t293 58.5q208 0 378 -99t265.5 -271.5t95.5 -381.5t-95.5 -381.5t-265.5 -271.5t-378 -99q-156 0 -293 58.5t-234 158.5t-153.5 239t-56.5 296zM225 721q0 -178 79.5 -327.5t223 -237.5t318.5 -88q176 0 319.5 88t223 237 t79.5 328t-79.5 328t-223 237t-319.5 88q-175 0 -318.5 -88t-223 -237.5t-79.5 -327.5zM653 1599l383 195l76 -86l-432 -152z" />
<glyph unicode="&#xd4;" horiz-adv-x="1693" d="M109 721q0 157 56.5 296t153.5 239t234 158.5t293 58.5q208 0 378 -99t265.5 -271.5t95.5 -381.5t-95.5 -381.5t-265.5 -271.5t-378 -99q-156 0 -293 58.5t-234 158.5t-153.5 239t-56.5 296zM225 721q0 -178 79.5 -327.5t223 -237.5t318.5 -88q176 0 319.5 88t223 237 t79.5 328t-79.5 328t-223 237t-319.5 88q-175 0 -318.5 -88t-223 -237.5t-79.5 -327.5zM532 1616l320 186l324 -186l-31 -55l-293 151l-287 -151z" />
<glyph unicode="&#xd5;" horiz-adv-x="1693" d="M109 721q0 157 56.5 296t153.5 239t234 158.5t293 58.5q208 0 378 -99t265.5 -271.5t95.5 -381.5t-95.5 -381.5t-265.5 -271.5t-378 -99q-156 0 -293 58.5t-234 158.5t-153.5 239t-56.5 296zM225 721q0 -178 79.5 -327.5t223 -237.5t318.5 -88q176 0 319.5 88t223 237 t79.5 328t-79.5 328t-223 237t-319.5 88q-175 0 -318.5 -88t-223 -237.5t-79.5 -327.5zM506 1624q32 62 80.5 96.5t101.5 34.5q63 0 167 -47t157 -47q70 0 127 94l57 -43q-33 -63 -84 -96t-98 -33q-63 0 -166 46t-156 46q-36 0 -69.5 -25t-57.5 -67z" />
<glyph unicode="&#xd6;" horiz-adv-x="1693" d="M109 721q0 157 56.5 296t153.5 239t234 158.5t293 58.5q208 0 378 -99t265.5 -271.5t95.5 -381.5t-95.5 -381.5t-265.5 -271.5t-378 -99q-156 0 -293 58.5t-234 158.5t-153.5 239t-56.5 296zM225 721q0 -178 79.5 -327.5t223 -237.5t318.5 -88q176 0 319.5 88t223 237 t79.5 328t-79.5 328t-223 237t-319.5 88q-175 0 -318.5 -88t-223 -237.5t-79.5 -327.5zM578 1667q0 29 22 49.5t53 20.5q29 0 52.5 -21t23.5 -49q0 -30 -23 -52t-53 -22q-31 0 -53 21.5t-22 52.5zM965 1667q0 29 21 49.5t52 20.5q29 0 51.5 -21t22.5 -49q0 -30 -22 -52 t-52 -22q-31 0 -52 21.5t-21 52.5z" />
<glyph unicode="&#xd7;" d="M150 209l354 354l-354 355l63 61l352 -354l355 354l61 -61l-354 -355l354 -354l-61 -62l-355 355l-352 -352z" />
<glyph unicode="&#xd8;" horiz-adv-x="1693" d="M109 721q0 209 95.5 381t265 271.5t376.5 99.5q277 0 479 -173l156 166l69 -65l-157 -166q92 -101 142 -233t50 -281q0 -209 -95.5 -381t-265.5 -271.5t-378 -99.5q-139 0 -263 46t-221 130l-161 -170l-68 66l162 172q-186 211 -186 508zM223 721q0 -246 150 -430 l880 930q-177 153 -407 153q-175 0 -318.5 -88t-224 -237.5t-80.5 -327.5zM434 225q170 -157 412 -157q176 0 320 88t224 237.5t80 327.5q0 251 -155 436z" />
<glyph unicode="&#xd9;" horiz-adv-x="1265" d="M156 459v987h112v-1004q0 -175 103.5 -273.5t261.5 -98.5t262 99t104 275v1002h111v-989q0 -110 -30.5 -197t-78.5 -140t-113 -87.5t-127.5 -48t-127.5 -13.5t-126.5 13t-127 47.5t-113.5 87.5t-79 140.5t-31 199.5zM334 1708l76 86l383 -195l-29 -43z" />
<glyph unicode="&#xda;" horiz-adv-x="1265" d="M156 459v987h112v-1004q0 -175 103.5 -273.5t261.5 -98.5t262 99t104 275v1002h111v-989q0 -110 -30.5 -197t-78.5 -140t-113 -87.5t-127.5 -48t-127.5 -13.5t-126.5 13t-127 47.5t-113.5 87.5t-79 140.5t-31 199.5zM473 1599l383 195l76 -86l-432 -152z" />
<glyph unicode="&#xdb;" horiz-adv-x="1265" d="M156 459v987h112v-1004q0 -175 103.5 -273.5t261.5 -98.5t262 99t104 275v1002h111v-989q0 -110 -30.5 -197t-78.5 -140t-113 -87.5t-127.5 -48t-127.5 -13.5t-126.5 13t-127 47.5t-113.5 87.5t-79 140.5t-31 199.5zM311 1616l320 186l323 -186l-30 -55l-293 151 l-287 -151z" />
<glyph unicode="&#xdc;" horiz-adv-x="1265" d="M156 459v987h112v-1004q0 -175 103.5 -273.5t261.5 -98.5t262 99t104 275v1002h111v-989q0 -110 -30.5 -197t-78.5 -140t-113 -87.5t-127.5 -48t-127.5 -13.5t-126.5 13t-127 47.5t-113.5 87.5t-79 140.5t-31 199.5zM365 1667q0 29 22 49.5t53 20.5q29 0 52.5 -21 t23.5 -49q0 -30 -23 -52t-53 -22q-31 0 -53 21.5t-22 52.5zM752 1667q0 29 21 49.5t52 20.5q29 0 51.5 -21t22.5 -49q0 -30 -22 -52t-52 -22q-31 0 -52 21.5t-21 52.5z" />
<glyph unicode="&#xdd;" horiz-adv-x="1140" d="M45 1446h119l407 -733l408 733h119l-475 -838v-608h-107v608zM412 1599l383 195l75 -86l-432 -152z" />
<glyph unicode="&#xde;" horiz-adv-x="948" d="M166 0v1446h108v-279h195q181 0 293 -114t112 -293q0 -199 -113 -311.5t-319 -112.5h-168v-336h-108zM272 424h174q157 0 236.5 92t79.5 242q0 137 -84 227t-242 90h-164v-651z" />
<glyph unicode="&#xdf;" horiz-adv-x="1034" d="M152 0v1104q0 92 29 162t78.5 110t108 60t124.5 20q81 0 146.5 -25t104.5 -65.5t59.5 -87.5t20.5 -94q0 -63 -19 -116t-46 -90.5t-54 -72t-46 -76t-19 -86.5q0 -42 18 -77.5t47 -62t64 -52t70 -54.5t64 -61.5t47 -81t18 -106.5q0 -112 -72 -190t-201 -78q-155 0 -274 96 l39 74q95 -91 225 -91q75 0 128.5 51t53.5 136q0 46 -18.5 84.5t-47.5 66.5t-64 53.5t-70.5 52.5t-64.5 57t-47.5 73.5t-18.5 95.5q0 53 19 100t46 83.5t54 73.5t46 85t19 103q0 33 -13.5 66.5t-39.5 63.5t-71 49t-101 19q-101 0 -170.5 -67t-69.5 -201v-1104h-102z" />
<glyph unicode="&#xe0;" horiz-adv-x="1116" d="M94 432q0 192 121 323.5t301 131.5q117 0 209.5 -53t140.5 -170l-4 118v88h103v-870h-103v121l4 78q-16 -37 -42 -71.5t-67 -68.5t-103.5 -54.5t-137.5 -20.5q-179 0 -300.5 128.5t-121.5 319.5zM199 432q0 -151 94 -254.5t239 -103.5q43 0 86.5 10.5t89 37t80 66 t56.5 102.5t22 142q0 92 -28.5 164t-76.5 114.5t-106.5 64.5t-122.5 22q-144 0 -238.5 -106.5t-94.5 -258.5zM295 1284l96 62l285 -279l-47 -35z" />
<glyph unicode="&#xe1;" horiz-adv-x="1116" d="M94 432q0 192 121 323.5t301 131.5q117 0 209.5 -53t140.5 -170l-4 118v88h103v-870h-103v121l4 78q-16 -37 -42 -71.5t-67 -68.5t-103.5 -54.5t-137.5 -20.5q-179 0 -300.5 128.5t-121.5 319.5zM199 432q0 -151 94 -254.5t239 -103.5q43 0 86.5 10.5t89 37t80 66 t56.5 102.5t22 142q0 92 -28.5 164t-76.5 114.5t-106.5 64.5t-122.5 22q-144 0 -238.5 -106.5t-94.5 -258.5zM401 1067l285 279l98 -62l-333 -252z" />
<glyph unicode="&#xe2;" horiz-adv-x="1116" d="M94 432q0 192 121 323.5t301 131.5q117 0 209.5 -53t140.5 -170l-4 118v88h103v-870h-103v121l4 78q-16 -37 -42 -71.5t-67 -68.5t-103.5 -54.5t-137.5 -20.5q-179 0 -300.5 128.5t-121.5 319.5zM199 432q0 -151 94 -254.5t239 -103.5q43 0 86.5 10.5t89 37t80 66 t56.5 102.5t22 142q0 92 -28.5 164t-76.5 114.5t-106.5 64.5t-122.5 22q-144 0 -238.5 -106.5t-94.5 -258.5zM231 1083l316 250l321 -250l-51 -51l-270 203l-266 -203z" />
<glyph unicode="&#xe3;" horiz-adv-x="1116" d="M94 432q0 192 121 323.5t301 131.5q117 0 209.5 -53t140.5 -170l-4 118v88h103v-870h-103v121l4 78q-16 -37 -42 -71.5t-67 -68.5t-103.5 -54.5t-137.5 -20.5q-179 0 -300.5 128.5t-121.5 319.5zM199 432q0 -151 94 -254.5t239 -103.5q43 0 86.5 10.5t89 37t80 66 t56.5 102.5t22 142q0 92 -28.5 164t-76.5 114.5t-106.5 64.5t-122.5 22q-144 0 -238.5 -106.5t-94.5 -258.5zM221 1118q27 61 72 95t92 34q59 0 153 -46t140 -46q65 0 117 94l51 -43q-30 -64 -75.5 -96.5t-88.5 -32.5q-60 0 -153.5 46t-139.5 46q-64 0 -117 -94z" />
<glyph unicode="&#xe4;" horiz-adv-x="1116" d="M94 432q0 192 121 323.5t301 131.5q117 0 209.5 -53t140.5 -170l-4 118v88h103v-870h-103v121l4 78q-16 -37 -42 -71.5t-67 -68.5t-103.5 -54.5t-137.5 -20.5q-179 0 -300.5 128.5t-121.5 319.5zM199 432q0 -151 94 -254.5t239 -103.5q43 0 86.5 10.5t89 37t80 66 t56.5 102.5t22 142q0 92 -28.5 164t-76.5 114.5t-106.5 64.5t-122.5 22q-144 0 -238.5 -106.5t-94.5 -258.5zM283 1178q0 29 20 49t51 20t52.5 -20.5t21.5 -48.5q0 -31 -21.5 -51.5t-52.5 -20.5t-51 20.5t-20 51.5zM666 1178q0 29 20 49t51 20t52.5 -20.5t21.5 -48.5 q0 -31 -21.5 -51.5t-52.5 -20.5t-51 20.5t-20 51.5z" />
<glyph unicode="&#xe5;" horiz-adv-x="1116" d="M94 432q0 192 121 323.5t301 131.5q117 0 209.5 -53t140.5 -170l-4 118v88h103v-870h-103v121l4 78q-16 -37 -42 -71.5t-67 -68.5t-103.5 -54.5t-137.5 -20.5q-179 0 -300.5 128.5t-121.5 319.5zM199 432q0 -151 94 -254.5t239 -103.5q43 0 86.5 10.5t89 37t80 66 t56.5 102.5t22 142q0 92 -28.5 164t-76.5 114.5t-106.5 64.5t-122.5 22q-144 0 -238.5 -106.5t-94.5 -258.5zM371 1198q0 76 54.5 130t129.5 54q77 0 131.5 -54t54.5 -130q0 -74 -55 -128t-131 -54q-75 0 -129.5 53.5t-54.5 128.5zM432 1200q0 -55 36.5 -92t86.5 -37 q54 0 89.5 36.5t35.5 90.5t-35.5 90.5t-89.5 36.5q-50 0 -86.5 -36.5t-36.5 -88.5z" />
<glyph unicode="&#xe6;" horiz-adv-x="1765" d="M94 432q0 192 121 323.5t301 131.5q237 0 348 -197l-2 180h103v-178q40 83 123.5 139t193.5 56q182 0 290.5 -133.5t108.5 -352.5h-716q5 -144 92 -237.5t229 -93.5q74 0 152 27.5t131 80.5l55 -67q-135 -129 -346 -129q-221 0 -313 184v-166h-103v166q-18 -24 -32.5 -41 t-47.5 -46t-67 -47.5t-87 -33t-112 -14.5q-179 0 -300.5 128.5t-121.5 319.5zM199 432q0 -151 94 -254.5t239 -103.5q43 0 86.5 10.5t89 37t80 66t56.5 102.5t22 142q0 92 -28.5 164t-76.5 114.5t-106.5 64.5t-122.5 22q-144 0 -238.5 -106.5t-94.5 -258.5zM965 481h610 q-11 139 -86 227.5t-209 88.5t-221.5 -91t-93.5 -225z" />
<glyph unicode="&#xe7;" horiz-adv-x="931" d="M94 436q0 191 121.5 321t314.5 130q87 0 175.5 -33t154.5 -102l-61 -70q-51 58 -120.5 87.5t-143.5 29.5q-144 0 -239 -106t-95 -259q0 -154 93.5 -258t242.5 -104q73 0 143.5 29t120.5 87l61 -71q-144 -135 -332 -135t-312 129t-124 325zM367 -428l41 43q43 -43 104 -43 q60 0 93.5 35t33.5 98q0 72 -41 102.5t-102 30.5v58q95 0 155 -50.5t60 -140.5q0 -86 -53 -138t-142 -52t-149 57z" />
<glyph unicode="&#xe8;" horiz-adv-x="1003" d="M94 434q0 124 53 227t151.5 164.5t221.5 61.5q182 0 291 -133.5t109 -352.5h-719q5 -144 93 -237.5t230 -93.5q74 0 152 27.5t131 80.5l55 -67q-135 -129 -346 -129q-187 0 -304.5 126.5t-117.5 325.5zM203 481h610q-11 139 -86 227.5t-209 88.5t-221.5 -91t-93.5 -225z M274 1284l97 62l284 -279l-47 -35z" />
<glyph unicode="&#xe9;" horiz-adv-x="1003" d="M94 434q0 124 53 227t151.5 164.5t221.5 61.5q182 0 291 -133.5t109 -352.5h-719q5 -144 93 -237.5t230 -93.5q74 0 152 27.5t131 80.5l55 -67q-135 -129 -346 -129q-187 0 -304.5 126.5t-117.5 325.5zM203 481h610q-11 139 -86 227.5t-209 88.5t-221.5 -91t-93.5 -225z M379 1067l285 279l98 -62l-334 -252z" />
<glyph unicode="&#xea;" horiz-adv-x="1003" d="M94 434q0 124 53 227t151.5 164.5t221.5 61.5q182 0 291 -133.5t109 -352.5h-719q5 -144 93 -237.5t230 -93.5q74 0 152 27.5t131 80.5l55 -67q-135 -129 -346 -129q-187 0 -304.5 126.5t-117.5 325.5zM201 1083l315 250l322 -250l-52 -51l-270 203l-266 -203zM203 481 h610q-11 139 -86 227.5t-209 88.5t-221.5 -91t-93.5 -225z" />
<glyph unicode="&#xeb;" horiz-adv-x="1003" d="M94 434q0 124 53 227t151.5 164.5t221.5 61.5q182 0 291 -133.5t109 -352.5h-719q5 -144 93 -237.5t230 -93.5q74 0 152 27.5t131 80.5l55 -67q-135 -129 -346 -129q-187 0 -304.5 126.5t-117.5 325.5zM203 481h610q-11 139 -86 227.5t-209 88.5t-221.5 -91t-93.5 -225z M248 1190q0 30 20 50t51 20q30 0 52 -21t22 -49q0 -31 -21.5 -51.5t-52.5 -20.5t-51 20.5t-20 51.5zM631 1190q0 30 20.5 50t50.5 20t52 -21t22 -49q0 -31 -21.5 -51.5t-52.5 -20.5t-51 20.5t-20 51.5z" />
<glyph unicode="&#xec;" horiz-adv-x="405" d="M-2 1284l96 62l285 -279l-47 -35zM152 0v870h102v-870h-102z" />
<glyph unicode="&#xed;" horiz-adv-x="405" d="M23 1067l284 279l99 -62l-334 -252zM152 0v870h102v-870h-102z" />
<glyph unicode="&#xee;" horiz-adv-x="405" d="M-72 1083l269 250l280 -250l-51 -51l-229 203l-220 -203zM152 0v870h102v-870h-102z" />
<glyph unicode="&#xef;" horiz-adv-x="405" d="M-43 1178q0 29 20.5 49t51.5 20q30 0 51.5 -20.5t21.5 -48.5q0 -31 -21 -51.5t-52 -20.5t-51.5 20.5t-20.5 51.5zM152 0v870h102v-870h-102zM299 1178q0 29 20.5 49t51.5 20q30 0 51.5 -20.5t21.5 -48.5q0 -31 -21 -51.5t-52 -20.5t-51.5 20.5t-20.5 51.5z" />
<glyph unicode="&#xf0;" horiz-adv-x="1089" d="M94 426q0 203 123 330t307 127q123 0 222.5 -61.5t144.5 -184.5q-65 292 -299 547l-279 -142l-32 62l262 135q-97 105 -248 207h133q119 -82 209 -172l207 108l33 -63l-193 -98q311 -353 311 -770q0 -207 -130 -338t-322 -131q-193 0 -321 128t-128 316zM199 418 q0 -137 98.5 -241.5t247.5 -104.5q148 0 246 105.5t98 246.5q0 153 -97.5 260t-246.5 107q-153 0 -249.5 -105t-96.5 -268z" />
<glyph unicode="&#xf1;" horiz-adv-x="1040" d="M152 0v870h102v-137h2q45 72 119.5 113t175.5 41q89 0 156.5 -27.5t106.5 -76t58 -108.5t19 -132v-543h-103v504q0 139 -64 216t-198 77q-117 0 -194.5 -71t-77.5 -173v-553h-102zM195 1118q27 61 71.5 95t91.5 34q59 0 153 -46t140 -46q65 0 117 94l51 -43 q-30 -64 -75.5 -96.5t-88.5 -32.5q-60 0 -153.5 46t-139.5 46q-63 0 -116 -94z" />
<glyph unicode="&#xf2;" horiz-adv-x="1085" d="M94 434q0 192 130 322.5t319 130.5q188 0 318 -130t130 -323q0 -192 -129.5 -322t-318.5 -130t-319 130t-130 322zM199 432q0 -154 99 -257t245 -103t245 103t99 257t-99 258.5t-245 104.5t-245 -104.5t-99 -258.5zM303 1284l96 62l285 -279l-47 -35z" />
<glyph unicode="&#xf3;" horiz-adv-x="1085" d="M94 434q0 192 130 322.5t319 130.5q188 0 318 -130t130 -323q0 -192 -129.5 -322t-318.5 -130t-319 130t-130 322zM199 432q0 -154 99 -257t245 -103t245 103t99 257t-99 258.5t-245 104.5t-245 -104.5t-99 -258.5zM395 1067l285 279l98 -62l-334 -252z" />
<glyph unicode="&#xf4;" horiz-adv-x="1085" d="M94 434q0 192 130 322.5t319 130.5q188 0 318 -130t130 -323q0 -192 -129.5 -322t-318.5 -130t-319 130t-130 322zM199 432q0 -154 99 -257t245 -103t245 103t99 257t-99 258.5t-245 104.5t-245 -104.5t-99 -258.5zM225 1083l316 250l321 -250l-51 -51l-270 203 l-267 -203z" />
<glyph unicode="&#xf5;" horiz-adv-x="1085" d="M94 434q0 192 130 322.5t319 130.5q188 0 318 -130t130 -323q0 -192 -129.5 -322t-318.5 -130t-319 130t-130 322zM199 432q0 -154 99 -257t245 -103t245 103t99 257t-99 258.5t-245 104.5t-245 -104.5t-99 -258.5zM233 1118q27 61 72 95t92 34q59 0 153 -46t140 -46 q65 0 117 94l51 -43q-30 -64 -75.5 -96.5t-88.5 -32.5q-60 0 -153.5 46t-139.5 46q-63 0 -116 -94z" />
<glyph unicode="&#xf6;" horiz-adv-x="1085" d="M94 434q0 192 130 322.5t319 130.5q188 0 318 -130t130 -323q0 -192 -129.5 -322t-318.5 -130t-319 130t-130 322zM199 432q0 -154 99 -257t245 -103t245 103t99 257t-99 258.5t-245 104.5t-245 -104.5t-99 -258.5zM289 1178q0 29 20 49t51 20t52.5 -20.5t21.5 -48.5 q0 -31 -21.5 -51.5t-52.5 -20.5t-51 20.5t-20 51.5zM672 1178q0 29 20 49t51 20t52.5 -20.5t21.5 -48.5q0 -31 -21.5 -51.5t-52.5 -20.5t-51 20.5t-20 51.5z" />
<glyph unicode="&#xf7;" d="M96 520v84h938v-84h-938zM473 283q0 36 26 62t62 26t62 -26t26 -62q0 -37 -25.5 -62.5t-62.5 -25.5t-62.5 25.5t-25.5 62.5zM473 844q0 36 26 62t62 26t62 -26t26 -62q0 -37 -25.5 -62.5t-62.5 -25.5t-62.5 25.5t-25.5 62.5z" />
<glyph unicode="&#xf8;" horiz-adv-x="1085" d="M92 6l117 123q-115 128 -115 305q0 192 130 322.5t319 130.5q158 0 286 -103l109 115l59 -51l-112 -119q106 -125 106 -295q0 -192 -129.5 -322t-318.5 -130q-160 0 -279 92l-112 -119zM199 434q0 -137 77 -233l488 514q-95 82 -221 82q-146 0 -245 -104.5t-99 -258.5z M332 145q86 -71 211 -71q146 0 245 103t99 257q0 124 -70 223z" />
<glyph unicode="&#xf9;" horiz-adv-x="1026" d="M147 328v542h105v-514q0 -136 63 -210t193 -74q113 0 187.5 69t74.5 170v559h104v-870h-100l-2 137h-2q-40 -66 -114 -110.5t-175 -44.5q-89 0 -155 27.5t-104 76.5t-56.5 109.5t-18.5 132.5zM264 1284l96 62l285 -279l-47 -35z" />
<glyph unicode="&#xfa;" horiz-adv-x="1026" d="M147 328v542h105v-514q0 -136 63 -210t193 -74q113 0 187.5 69t74.5 170v559h104v-870h-100l-2 137h-2q-40 -66 -114 -110.5t-175 -44.5q-89 0 -155 27.5t-104 76.5t-56.5 109.5t-18.5 132.5zM391 1067l285 279l98 -62l-334 -252z" />
<glyph unicode="&#xfb;" horiz-adv-x="1026" d="M147 328v542h105v-514q0 -136 63 -210t193 -74q113 0 187.5 69t74.5 170v559h104v-870h-100l-2 137h-2q-40 -66 -114 -110.5t-175 -44.5q-89 0 -155 27.5t-104 76.5t-56.5 109.5t-18.5 132.5zM199 1083l315 250l322 -250l-52 -51l-270 203l-266 -203z" />
<glyph unicode="&#xfc;" horiz-adv-x="1026" d="M147 328v542h105v-514q0 -136 63 -210t193 -74q113 0 187.5 69t74.5 170v559h104v-870h-100l-2 137h-2q-40 -66 -114 -110.5t-175 -44.5q-89 0 -155 27.5t-104 76.5t-56.5 109.5t-18.5 132.5zM256 1178q0 29 20.5 49t51.5 20q30 0 51.5 -20.5t21.5 -48.5q0 -31 -21 -51.5 t-52 -20.5t-51.5 20.5t-20.5 51.5zM639 1178q0 29 20.5 49t51.5 20q30 0 51.5 -20.5t21.5 -48.5q0 -31 -21 -51.5t-52 -20.5t-51.5 20.5t-20.5 51.5z" />
<glyph unicode="&#xfd;" horiz-adv-x="913" d="M33 870h114l330 -731l293 731h111l-559 -1327h-99l199 486zM330 1067l284 279l99 -62l-334 -252z" />
<glyph unicode="&#xfe;" horiz-adv-x="1116" d="M152 -455v1901h102v-782h4q42 114 135 168.5t211 54.5q92 0 170.5 -35.5t132.5 -96.5t84.5 -144.5t30.5 -178.5q0 -190 -118.5 -319t-299.5 -129q-72 0 -133 19.5t-102 52.5t-68 68.5t-43 74.5h-4v-654h-102zM250 432q0 -79 22 -142t56.5 -102.5t80 -66t89 -37 t86.5 -10.5q143 0 238.5 103.5t95.5 254.5q0 152 -95 258.5t-239 106.5q-64 0 -122.5 -22t-106.5 -64.5t-76.5 -114.5t-28.5 -164z" />
<glyph unicode="&#xff;" horiz-adv-x="913" d="M33 870h114l330 -731l293 731h111l-559 -1327h-99l199 486zM203 1178q0 29 20 49t51 20t52.5 -20.5t21.5 -48.5q0 -31 -21.5 -51.5t-52.5 -20.5t-51 20.5t-20 51.5zM586 1178q0 29 20 49t51 20t52.5 -20.5t21.5 -48.5q0 -31 -21.5 -51.5t-52.5 -20.5t-51 20.5t-20 51.5z " />
<glyph unicode="&#x152;" horiz-adv-x="1835" d="M109 721q0 211 87 374.5t256 257t396 93.5h881v-100h-582v-551h541v-99h-541v-598h582v-98h-881q-227 0 -396 92.5t-256 255t-87 373.5zM223 721q0 -181 73.5 -321t218.5 -221t341 -81h182v1245l-182 3q-195 4 -340.5 -78t-219 -224t-73.5 -323z" />
<glyph unicode="&#x153;" horiz-adv-x="1794" d="M94 434q0 192 130 322.5t319 130.5q131 0 235.5 -67t157.5 -181q49 113 147 180.5t228 67.5q182 0 290.5 -133.5t108.5 -352.5h-719q5 -144 93.5 -237.5t230.5 -93.5q74 0 151.5 27.5t130.5 80.5l56 -67q-135 -129 -346 -129q-130 0 -227.5 64.5t-145.5 176.5 q-53 -110 -157 -175.5t-234 -65.5q-189 0 -319 130t-130 322zM199 432q0 -154 99 -257t245 -103t245 103t99 257t-99 258.5t-245 104.5t-245 -104.5t-99 -258.5zM993 481h611q-11 139 -86 227.5t-209 88.5t-222 -91t-94 -225z" />
<glyph unicode="&#x178;" horiz-adv-x="1140" d="M45 1446h119l407 -733l408 733h119l-475 -838v-608h-107v608zM303 1667q0 29 22.5 49.5t53.5 20.5q29 0 52.5 -21t23.5 -49q0 -30 -23 -52t-53 -22q-31 0 -53.5 21.5t-22.5 52.5zM690 1667q0 29 21.5 49.5t52.5 20.5q29 0 51.5 -21t22.5 -49q0 -30 -22 -52t-52 -22 q-31 0 -52.5 21.5t-21.5 52.5z" />
<glyph unicode="&#x2c6;" horiz-adv-x="792" d="M78 1083l315 250l322 -250l-51 -51l-271 203l-266 -203z" />
<glyph unicode="&#x2dc;" horiz-adv-x="792" d="M80 1118q27 61 72 95t92 34q59 0 153 -46t140 -46q64 0 116 94l52 -43q-30 -64 -75.5 -96.5t-88.5 -32.5q-60 0 -153.5 46t-139.5 46q-64 0 -117 -94z" />
<glyph unicode="&#x2000;" horiz-adv-x="956" />
<glyph unicode="&#x2001;" horiz-adv-x="1913" />
<glyph unicode="&#x2002;" horiz-adv-x="956" />
<glyph unicode="&#x2003;" horiz-adv-x="1913" />
<glyph unicode="&#x2004;" horiz-adv-x="637" />
<glyph unicode="&#x2005;" horiz-adv-x="478" />
<glyph unicode="&#x2006;" horiz-adv-x="318" />
<glyph unicode="&#x2007;" horiz-adv-x="318" />
<glyph unicode="&#x2008;" horiz-adv-x="239" />
<glyph unicode="&#x2009;" horiz-adv-x="382" />
<glyph unicode="&#x200a;" horiz-adv-x="106" />
<glyph unicode="&#x2010;" horiz-adv-x="677" d="M92 395v92h494v-92h-494z" />
<glyph unicode="&#x2011;" horiz-adv-x="677" d="M92 395v92h494v-92h-494z" />
<glyph unicode="&#x2012;" horiz-adv-x="677" d="M92 395v92h494v-92h-494z" />
<glyph unicode="&#x2013;" horiz-adv-x="1024" d="M82 401v74h860v-74h-860z" />
<glyph unicode="&#x2014;" horiz-adv-x="1744" d="M63 401v74h1618v-74h-1618z" />
<glyph unicode="&#x2018;" horiz-adv-x="358" d="M59 977l150 469h74l-103 -469h-121z" />
<glyph unicode="&#x2019;" horiz-adv-x="358" d="M76 977l104 469h119l-149 -469h-74z" />
<glyph unicode="&#x201a;" horiz-adv-x="358" d="M76 -225l102 469h121l-154 -469h-69z" />
<glyph unicode="&#x201c;" horiz-adv-x="645" d="M59 977l148 469h72l-101 -469h-119zM348 977l148 469h73l-102 -469h-119z" />
<glyph unicode="&#x201d;" horiz-adv-x="645" d="M76 977l102 469h121l-152 -469h-71zM365 977l100 469h121l-150 -469h-71z" />
<glyph unicode="&#x201e;" horiz-adv-x="645" d="M76 -225l102 469h121l-154 -469h-69zM365 -225l98 469h123l-154 -469h-67z" />
<glyph unicode="&#x2022;" horiz-adv-x="1007" d="M164 702q0 141 99.5 240.5t240.5 99.5t240.5 -99.5t99.5 -240.5t-99.5 -240.5t-240.5 -99.5t-240.5 99.5t-99.5 240.5z" />
<glyph unicode="&#x2026;" horiz-adv-x="1316" d="M131 63q0 32 24 56t58 24q32 0 57 -24t25 -56q0 -33 -24.5 -56t-57.5 -23q-34 0 -58 23t-24 56zM578 63q0 33 24 56.5t57 23.5q32 0 57 -24t25 -56q0 -33 -24.5 -56t-57.5 -23q-34 0 -57.5 22.5t-23.5 56.5zM1024 63q0 32 24 56t56 24q34 0 58 -24t24 -56q0 -33 -24 -56 t-58 -23t-57 22.5t-23 56.5z" />
<glyph unicode="&#x202f;" horiz-adv-x="382" />
<glyph unicode="&#x2039;" horiz-adv-x="540" d="M43 401l305 398h111l-307 -398l313 -401h-111z" />
<glyph unicode="&#x203a;" horiz-adv-x="540" d="M76 0l311 401l-305 398h108l306 -398l-312 -401h-108z" />
<glyph unicode="&#x205f;" horiz-adv-x="478" />
<glyph unicode="&#x20ac;" d="M31 532v89h135q-2 33 -2 102q0 61 2 96h-133v88h141q34 261 167.5 413.5t328.5 152.5q137 0 242.5 -78.5t172.5 -216.5l-92 -50q-51 117 -133 182.5t-188 65.5q-157 0 -257.5 -128.5t-127.5 -340.5h573v-88h-579q-5 -54 -5 -96q0 -19 5 -102h579v-89h-571 q27 -214 126 -340t257 -126q115 0 199 74.5t137 201.5l88 -51q-66 -150 -174.5 -236t-253.5 -86q-200 0 -330 149t-162 414h-145z" />
<glyph unicode="&#x2122;" horiz-adv-x="964" d="M33 1384v62h332v-62h-129v-421h-72v421h-131zM436 963v485h8l238 -377l236 377h8v-485h-68v284l-176 -293l-178 293v-284h-68z" />
<glyph unicode="&#x25fc;" horiz-adv-x="870" d="M0 0v870h870v-870h-870z" />
</font>
</defs>
</svg>
